<?xml version="1.0" standalone="no"?>
<!DOCTYPE svg PUBLIC "-//W3C//DTD SVG 20010904//EN"
 "http://www.w3.org/TR/2001/REC-SVG-20010904/DTD/svg10.dtd">
<svg version="1.0" xmlns="http://www.w3.org/2000/svg"
 width="300.000000pt" height="300.000000pt" viewBox="0 0 300.000000 300.000000"
 preserveAspectRatio="xMidYMid meet">
<metadata>
Created by potrace 1.14, written by Peter Selinger 2001-2017
</metadata>
<g transform="translate(0.000000,300.000000) scale(0.100000,-0.100000)"
fill="#000000" stroke="none">
<path d="M1356 2903 c-2 -2 -24 -7 -48 -9 -23 -3 -61 -10 -83 -16 -22 -5 -49
-12 -61 -14 -12 -2 -56 -15 -100 -30 -247 -80 -466 -232 -654 -453 -25 -29
-51 -59 -58 -66 -6 -8 -12 -16 -12 -19 0 -3 -16 -31 -36 -62 -74 -116 -165
-333 -179 -425 -2 -19 -11 -62 -18 -97 -8 -38 -14 -130 -15 -230 0 -182 19
-312 73 -477 107 -329 363 -634 665 -795 l75 -39 -280 -1 c-237 0 -284 -2
-303 -16 -25 -17 -29 -51 -8 -80 13 -17 31 -19 183 -24 92 -3 631 -4 1196 -4
l1028 1 20 21 c24 27 25 64 1 85 -16 15 -53 17 -306 17 -305 0 -306 0 -226 43
61 33 94 52 109 64 9 7 45 34 81 60 263 195 468 530 526 863 3 14 7 32 9 40
16 59 23 311 11 408 -28 225 -137 496 -270 672 -129 172 -364 366 -546 452
-73 34 -262 98 -305 102 -5 1 -26 5 -45 10 -19 5 -48 11 -65 13 -44 6 -353 11
-359 6z m389 -127 c283 -53 493 -165 705 -376 114 -113 183 -204 234 -306 29
-58 31 -75 14 -92 -24 -24 -46 -13 -69 35 -24 49 -85 144 -122 192 -53 67
-216 215 -290 264 -81 54 -214 122 -277 142 -52 16 -123 37 -141 41 -112 24
-114 24 -244 28 -104 3 -178 -2 -275 -18 -339 -58 -687 -315 -855 -633 -33
-62 -41 -70 -57 -62 -42 22 -42 47 -2 125 21 41 41 74 45 74 4 0 10 8 13 18 4
10 14 27 24 38 9 10 35 42 57 69 77 97 202 207 317 278 41 26 80 47 86 47 7 0
12 5 12 10 0 6 5 10 12 10 6 0 36 12 67 27 100 47 253 88 396 106 61 8 272 -3
350 -17z"/>
</g>
</svg>
